<?xml version="1.0" encoding="UTF-8"?>
<svg xmlns="http://www.w3.org/2000/svg" xmlns:xlink="http://www.w3.org/1999/xlink" width="733.12" height="146.72" viewBox="58.56 186.88 733.12 146.72" xmlns:c2pa="http://c2pa.org/manifest"><metadata><c2pa:manifest>AAAWgmp1bWIAAAAeanVtZGMycGEAEQAQgAAAqgA4m3EDYzJwYQAAABZcanVtYgAAAEdqdW1kYzJtYQARABCAAACqADibcQN1cm46YzJwYTo5YTY4OGJkMy1mMGIwLTQ1MGUtODRkMy1hMzlkMzg4MjdkMjgAAAADl2p1bWIAAAApanVtZGMyYXMAEQAQgAAAqgA4m3EDYzJwYS5hc3NlcnRpb25zAAAAALxqdW1iAAAARGp1bWRjYm9yABEAEIAAAKoAOJtxE2MycGEuaW5ncmVkaWVudC52MwAAAAAYYzJzaOKbtoyd7XtpDWg947ojpjUAAABwY2JvcqNpZGM6Zm9ybWF0bWltYWdlL3N2Zyt4bWxqaW5zdGFuY2VJRHgseG1wOmlpZDo2NTE0OGI5YS0yMjgxLTRhMWItOTFlOS1jMGJkMDEzODNjN2RscmVsYXRpb25zaGlwaHBhcmVudE9mAAAB4mp1bWIAAABBanVtZGNib3IAEQAQgAAAqgA4m3ETYzJwYS5hY3Rpb25zLnYyAAAAABhjMnNoQfGKBlCSvrM4lyl8+mpuUgAAAZljYm9yomdhY3Rpb25zgqJmYWN0aW9ua2MycGEub3BlbmVkanBhcmFtZXRlcnOha2luZ3JlZGllbnRzgaJjdXJseC1zZWxmI2p1bWJmPWMycGEuYXNzZXJ0aW9ucy9jMnBhLmluZ3JlZGllbnQudjNkaGFzaFggG+Vr6Vf2LFeKmk8N430qRooksf+j6WaXCEsXphJu0EmkZmFjdGlvbngdY29tLmFudGhyb3BpYy5jbGF1ZGUucHJvdmlkZWRqcGFyYW1ldGVyc6F4H2NvbS5hbnRocm9waWMub3JpZ2luLWNvbmZpZGVuY2VndW5rbm93bmtkZXNjcmlwdGlvbnhmQ2xhdWRlIHByb3ZpZGVkIHRoaXMgZmlsZSBhdCB0aGUgcmVxdWVzdCBvZiBhIHVzZXIgYW5kIG1heSBoYXZlIGNyZWF0ZWQgb3IgbW9kaWZpZWQgdGhlIGZpbGUgY29udGVudHMubXNvZnR3YXJlQWdlbnShZG5hbWVmQ2xhdWRlcmFsbEFjdGlvbnNJbmNsdWRlZPUAAADIanVtYgAAAEBqdW1kY2JvcgARABCAAACqADibcRNjMnBhLmhhc2guZGF0YQAAAAAYYzJzaFAxXy7eKjUkh+JhKUG5gSwAAACAY2JvcqVjYWxnZnNoYTI1NmNwYWRNAAAAAAAAAAAAAAAAAGRoYXNoWCBRVZMqdkSeKRb5PO8lekdnt3im56WxEdX1k13SS8ehAGRuYW1lbmp1bWJmIG1hbmlmZXN0amV4Y2x1c2lvbnOBomVzdGFydBj9Zmxlbmd0aBkeBAAAAj5qdW1iAAAAJ2p1bWRjMmNsABEAEIAAAKoAOJtxA2MycGEuY2xhaW0udjIAAAACD2Nib3KlY2FsZ2ZzaGEyNTZpc2lnbmF0dXJleE1zZWxmI2p1bWJmPS9jMnBhL3VybjpjMnBhOjlhNjg4YmQzLWYwYjAtNDUwZS04NGQzLWEzOWQzODgyN2QyOC9jMnBhLnNpZ25hdHVyZWppbnN0YW5jZUlEeCx4bXA6aWlkOjcxYzMzNGMzLWMxNDgtNDI4ZS05Y2U4LWMyODM2N2U5MmRlYXJjcmVhdGVkX2Fzc2VydGlvbnODomN1cmx4LXNlbGYjanVtYmY9YzJwYS5hc3NlcnRpb25zL2MycGEuaW5ncmVkaWVudC52M2RoYXNoWCAb5WvpV/YsV4qaTw3jfSpGiiSx/6PpZpcISxemEm7QSaJjdXJseCpzZWxmI2p1bWJmPWMycGEuYXNzZXJ0aW9ucy9jMnBhLmFjdGlvbnMudjJkaGFzaFggH34OFWpGZIyqMWNTvmxdy0xe/0Mxq3tJEdnYPgsJSkyiY3VybHgpc2VsZiNqdW1iZj1jMnBhLmFzc2VydGlvbnMvYzJwYS5oYXNoLmRhdGFkaGFzaFggRM4U4X+TWoHn3dH/4TWOqM7AJNyN9tQa4ReDXA7m8Ml0Y2xhaW1fZ2VuZXJhdG9yX2luZm+jZG5hbWVvQW50aHJvcGljIEZpbGVzZ3ZlcnNpb25lMS4wLjBrc3BlY1ZlcnNpb25lMi40LjAAABA4anVtYgAAAChqdW1kYzJjcwARABCAAACqADibcQNjMnBhLnNpZ25hdHVyZQAAABAIY2JvctKEWQISogEmGCFZAgowggIGMIIBjaADAgECAhRA5aAK7sI50L64g/oGQgU9Z1UTADAKBggqhkjOPQQDAzBJMRcwFQYDVQQKEw5BbnRocm9waWMsIFBCQzEuMCwGA1UEAxMlQW50aHJvcGljIENvbnRlbnQgQ3JlZGVudGlhbHMgUm9vdCBDQTAeFw0yNjA4MDcxODQzNTZaFw0yODA4MDYxOTQzNTZaMEQxFzAVBgNVBAoTDkFudGhyb3BpYywgUEJDMSkwJwYDVQQDEyBBbnRocm9waWMgQ2xhdWRlIENvbnRlbnQgU2lnbmluZzBZMBMGByqGSM49AgEGCCqGSM49AwEHA0IABJh6CmvLUBgFFNU0vUKlOVtE6djd17L5SuwX0LemFisBM3dkd/3cyjxFA3Qo5S46fX0/ihY0VZ7mfb9KF703t5OjWDBWMA4GA1UdDwEB/wQEAwIHgDAVBgNVHSUEDjAMBgorBgEEAYPoXgIBMAwGA1UdEwEB/wQCMAAwHwYDVR0jBBgwFoAUzlHiBIFOZFsj+OPEz5o+nMHXXMIwCgYIKoZIzj0EAwMDZwAwZAIwMXMdFJ4BetLLVY7ORuE9noqbbAZOZn/aArXyTwFAZfKrPzxF2vPoJNf1+UCdg1XGAjBwX1zd9WGqYkqmL5SFqw1QySjr1zJfpJM9+1rdDwSPLMOPOjKuiXjoU/pUUeG9RwmhY3BhZFkNngAAAAAAAAAAAAAAAAAAAAAAAAAAAAAAAAAAAAAAAAAAAAAAAAAAAAAAAAAAAAAAAAAAAAAAAAAAAAAAAAAAAAAAAAAAAAAAAAAAAAAAAAAAAAAAAAAAAAAAAAAAAAAAAAAAAAAAAAAAAAAAAAAAAAAAAAAAAAAAAAAAAAAAAAAAAAAAAAAAAAAAAAAAAAAAAAAAAAAAAAAAAAAAAAAAAAAAAAAAAAAAAAAAAAAAAAAAAAAAAAAAAAAAAAAAAAAAAAAAAAAAAAAAAAAAAAAAAAAAAAAAAAAAAAAAAAAAAAAAAAAAAAAAAAAAAAAAAAAAAAAAAAAAAAAAAAAAAAAAAAAAAAAAAAAAAAAAAAAAAAAAAAAAAAAAAAAAAAAAAAAAAAAAAAAAAAAAAAAAAAAAAAAAAAAAAAAAAAAAAAAAAAAAAAAAAAAAAAAAAAAAAAAAAAAAAAAAAAAAAAAAAAAAAAAAAAAAAAAAAAAAAAAAAAAAAAAAAAAAAAAAAAAAAAAAAAAAAAAAAAAAAAAAAAAAAAAAAAAAAAAAAAAAAAAAAAAAAAAAAAAAAAAAAAAAAAAAAAAAAAAAAAAAAAAAAAAAAAAAAAAAAAAAAAAAAAAAAAAAAAAAAAAAAAAAAAAAAAAAAAAAAAAAAAAAAAAAAAAAAAAAAAAAAAAAAAAAAAAAAAAAAAAAAAAAAAAAAAAAAAAAAAAAAAAAAAAAAAAAAAAAAAAAAAAAAAAAAAAAAAAAAAAAAAAAAAAAAAAAAAAAAAAAAAAAAAAAAAAAAAAAAAAAAAAAAAAAAAAAAAAAAAAAAAAAAAAAAAAAAAAAAAAAAAAAAAAAAAAAAAAAAAAAAAAAAAAAAAAAAAAAAAAAAAAAAAAAAAAAAAAAAAAAAAAAAAAAAAAAAAAAAAAAAAAAAAAAAAAAAAAAAAAAAAAAAAAAAAAAAAAAAAAAAAAAAAAAAAAAAAAAAAAAAAAAAAAAAAAAAAAAAAAAAAAAAAAAAAAAAAAAAAAAAAAAAAAAAAAAAAAAAAAAAAAAAAAAAAAAAAAAAAAAAAAAAAAAAAAAAAAAAAAAAAAAAAAAAAAAAAAAAAAAAAAAAAAAAAAAAAAAAAAAAAAAAAAAAAAAAAAAAAAAAAAAAAAAAAAAAAAAAAAAAAAAAAAAAAAAAAAAAAAAAAAAAAAAAAAAAAAAAAAAAAAAAAAAAAAAAAAAAAAAAAAAAAAAAAAAAAAAAAAAAAAAAAAAAAAAAAAAAAAAAAAAAAAAAAAAAAAAAAAAAAAAAAAAAAAAAAAAAAAAAAAAAAAAAAAAAAAAAAAAAAAAAAAAAAAAAAAAAAAAAAAAAAAAAAAAAAAAAAAAAAAAAAAAAAAAAAAAAAAAAAAAAAAAAAAAAAAAAAAAAAAAAAAAAAAAAAAAAAAAAAAAAAAAAAAAAAAAAAAAAAAAAAAAAAAAAAAAAAAAAAAAAAAAAAAAAAAAAAAAAAAAAAAAAAAAAAAAAAAAAAAAAAAAAAAAAAAAAAAAAAAAAAAAAAAAAAAAAAAAAAAAAAAAAAAAAAAAAAAAAAAAAAAAAAAAAAAAAAAAAAAAAAAAAAAAAAAAAAAAAAAAAAAAAAAAAAAAAAAAAAAAAAAAAAAAAAAAAAAAAAAAAAAAAAAAAAAAAAAAAAAAAAAAAAAAAAAAAAAAAAAAAAAAAAAAAAAAAAAAAAAAAAAAAAAAAAAAAAAAAAAAAAAAAAAAAAAAAAAAAAAAAAAAAAAAAAAAAAAAAAAAAAAAAAAAAAAAAAAAAAAAAAAAAAAAAAAAAAAAAAAAAAAAAAAAAAAAAAAAAAAAAAAAAAAAAAAAAAAAAAAAAAAAAAAAAAAAAAAAAAAAAAAAAAAAAAAAAAAAAAAAAAAAAAAAAAAAAAAAAAAAAAAAAAAAAAAAAAAAAAAAAAAAAAAAAAAAAAAAAAAAAAAAAAAAAAAAAAAAAAAAAAAAAAAAAAAAAAAAAAAAAAAAAAAAAAAAAAAAAAAAAAAAAAAAAAAAAAAAAAAAAAAAAAAAAAAAAAAAAAAAAAAAAAAAAAAAAAAAAAAAAAAAAAAAAAAAAAAAAAAAAAAAAAAAAAAAAAAAAAAAAAAAAAAAAAAAAAAAAAAAAAAAAAAAAAAAAAAAAAAAAAAAAAAAAAAAAAAAAAAAAAAAAAAAAAAAAAAAAAAAAAAAAAAAAAAAAAAAAAAAAAAAAAAAAAAAAAAAAAAAAAAAAAAAAAAAAAAAAAAAAAAAAAAAAAAAAAAAAAAAAAAAAAAAAAAAAAAAAAAAAAAAAAAAAAAAAAAAAAAAAAAAAAAAAAAAAAAAAAAAAAAAAAAAAAAAAAAAAAAAAAAAAAAAAAAAAAAAAAAAAAAAAAAAAAAAAAAAAAAAAAAAAAAAAAAAAAAAAAAAAAAAAAAAAAAAAAAAAAAAAAAAAAAAAAAAAAAAAAAAAAAAAAAAAAAAAAAAAAAAAAAAAAAAAAAAAAAAAAAAAAAAAAAAAAAAAAAAAAAAAAAAAAAAAAAAAAAAAAAAAAAAAAAAAAAAAAAAAAAAAAAAAAAAAAAAAAAAAAAAAAAAAAAAAAAAAAAAAAAAAAAAAAAAAAAAAAAAAAAAAAAAAAAAAAAAAAAAAAAAAAAAAAAAAAAAAAAAAAAAAAAAAAAAAAAAAAAAAAAAAAAAAAAAAAAAAAAAAAAAAAAAAAAAAAAAAAAAAAAAAAAAAAAAAAAAAAAAAAAAAAAAAAAAAAAAAAAAAAAAAAAAAAAAAAAAAAAAAAAAAAAAAAAAAAAAAAAAAAAAAAAAAAAAAAAAAAAAAAAAAAAAAAAAAAAAAAAAAAAAAAAAAAAAAAAAAAAAAAAAAAAAAAAAAAAAAAAAAAAAAAAAAAAAAAAAAAAAAAAAAAAAAAAAAAAAAAAAAAAAAAAAAAAAAAAAAAAAAAAAAAAAAAAAAAAAAAAAAAAAAAAAAAAAAAAAAAAAAAAAAAAAAAAAAAAAAAAAAAAAAAAAAAAAAAAAAAAAAAAAAAAAAAAAAAAAAAAAAAAAAAAAAAAAAAAAAAAAAAAAAAAAAAAAAAAAAAAAAAAAAAAAAAAAAAAAAAAAAAAAAAAAAAAAAAAAAAAAAAAAAAAAAAAAAAAAAAAAAAAAAAAAAAAAAAAAAAAAAAAAAAAAAAAAAAAAAAAAAAAAAAAAAAAAAAAAAAAAAAAAAAAAAAAAAAAAAAAAAAAAAAAAAAAAAAAAAAAAAAAAAAAAAAAAAAAAAAAAAAAAAAAAAAAAAAAAAAAAAAAAAAAAAAAAAAAAAAAAAAAAAAAAAAAAAAAAAAAAAAAAAAAAAAAAAAAAAAAAAAAAAAAAAAAAAAAAAAAAAAAAAAAAAAAAAAAAAAAAAAAAAAAAAAAAAAAAAAAAAAAAAAAAAAAAAAAAAAAAAAAAAAAAAAAAAAAAAAAAAAAAAAAAAAAAAAAAAAAAAAAAAAAAAAAAAAAAAAAAAAAAAAAAAAAAAAAAAAAAAAAAAAAAAAAAAAAAAAAAAAAAAAAAAAAAAAAAAAAAAAAAAAAAAAAAAAAAAAAAAAAAAAAAAAAAAAAAAAAAAAAAAAAAAAAAAAAAAAAAAAAAAAAAAAAAAAAAAAAAAAAAAAAAAAAAAAAAAAAAAAAAAAAAAAAAAAAAAAAAAAAAAAAAAAAAAAAAAAAAAAAAAAAAAAAAAAAAAAAAAAAAAAAAAAAAAAAAAAAAAAAAAAAAAAAAAAAAAAAAAAAAAAAAAAAAAAAAAAAAAAAAAAAAAAAAAAAAAAAAAAAAAAAAAAAAAAAAAAAAAAAAAAAAAAAAAAAAAAAAAAAAAAAAAAAAAAAAAAAAAAAAAAAAAAAAAAAAAAAAAAAAAAAAAAAAAAAAAAAAAAAAAAAAAAAAAAAAAAAAAAAAAAAAAAAAAAAAAAAAAAAAAAAAAAAAAAAAAAAAAAAAAAAAAAAAAAAAAAAAAAAAAAAAAAAAAAAAAAAAAAAAAAAAAAAAAAAAAAAAAAAAAAAAAAAAAAAAAAAAAAAAAAAAAAAAAAAAAAAAAAAAAAAAAAAAAAAAAAAAAAAAAAAAAAAAAAAAAAAAAAAAAAAAAAAAAAAAAAAAAAAAAAAAAAAAAAAAAAAAAAAAAAAAAAAAAAAAAAAAAAAAAAAAAAAAAAAAAAAAAAAAAAAAAAAAAAAAAAAAAAAAAAAAAAAAAAAAAAAAAAAAAAAAAAAAAAAAAAAAAAAAAAAAAAAAAAAAAAAAAAAAAAAAAAAAAAAAAAAAAAAAAAAAAAAAAAAAAAAAAAAAAAAAAAAAAAAAAAAAAAAAAAAAAAAAAAAAAAAAAAAAAAAAAAAAAAAAAAAAAAAAAAAAAAAAAAAAAAAAAAAAAAAAAAAAAAAAAAAAAAAAAAAAAAAAAAAAAAAAAAAAAAAAAAAAAAAAAAAAAAAAAAAAAAAAAAAAAAAAAAAAAAAAAAAAAAAAAAAAAAAAAAAAAAAAAAAAAAAAAAAAAAAAAAAAAAAAAAAAAAAAAAAAAAAAAAAAAAAAAAAAAAAAAAAAAAAAAAAAAAAAAAAAAAAAAAAAAAAAAAAAAAAAAAAAAAAAAAAAAAAAAAAAAAAAAAAAAAAAAAAAAAAAAAAAAAAAAAAAAAAAAAAAAAAAAAAAAAAAAAAAAAAAAAAAAAAAAAAAAAAAAAAAAAAAAAAAAAAAAPZYQFmy+qSuRDePbZBwLXrlNafuKqGy9IetuaVmrUNnEx5LQ0k27IWrivywSfuvV/RMBqqirxofZIu6R/xz6Z0LPw0=</c2pa:manifest></metadata>
<defs>
<g>
<g id="glyph-0-0">
<path d="M 59.25 1.71875 C 51.875 1.71875 45.019531 0.378906 38.6875 -2.296875 C 32.363281 -4.984375 26.898438 -8.648438 22.296875 -13.296875 C 17.691406 -17.953125 14.09375 -23.441406 11.5 -29.765625 C 8.914062 -36.097656 7.625 -42.859375 7.625 -50.046875 L 7.625 -50.34375 C 7.625 -57.53125 8.914062 -64.265625 11.5 -70.546875 C 14.09375 -76.828125 17.691406 -82.335938 22.296875 -87.078125 C 26.898438 -91.828125 32.410156 -95.566406 38.828125 -98.296875 C 45.253906 -101.035156 52.351562 -102.40625 60.125 -102.40625 C 64.820312 -102.40625 69.109375 -102.019531 72.984375 -101.25 C 76.867188 -100.488281 80.394531 -99.4375 83.5625 -98.09375 C 86.726562 -96.75 89.648438 -95.117188 92.328125 -93.203125 C 95.015625 -91.285156 97.507812 -89.175781 99.8125 -86.875 L 85.71875 -70.625 C 81.789062 -74.164062 77.785156 -76.941406 73.703125 -78.953125 C 69.628906 -80.972656 65.050781 -81.984375 59.96875 -81.984375 C 55.75 -81.984375 51.84375 -81.164062 48.25 -79.53125 C 44.65625 -77.90625 41.5625 -75.65625 38.96875 -72.78125 C 36.382812 -69.90625 34.375 -66.570312 32.9375 -62.78125 C 31.5 -58.988281 30.78125 -54.9375 30.78125 -50.625 L 30.78125 -50.34375 C 30.78125 -46.03125 31.5 -41.953125 32.9375 -38.109375 C 34.375 -34.273438 36.363281 -30.921875 38.90625 -28.046875 C 41.445312 -25.171875 44.515625 -22.894531 48.109375 -21.21875 C 51.703125 -19.539062 55.65625 -18.703125 59.96875 -18.703125 C 65.726562 -18.703125 70.597656 -19.753906 74.578125 -21.859375 C 78.554688 -23.972656 82.507812 -26.847656 86.4375 -30.484375 L 100.53125 -16.25 C 97.945312 -13.46875 95.265625 -10.972656 92.484375 -8.765625 C 89.703125 -6.566406 86.65625 -4.675781 83.34375 -3.09375 C 80.039062 -1.507812 76.421875 -0.3125 72.484375 0.5 C 68.554688 1.3125 64.144531 1.71875 59.25 1.71875 Z M 59.25 1.71875 "/>
</g>
<g id="glyph-0-1">
<path d="M 61.265625 -18.703125 C 65.679688 -18.703125 69.757812 -19.515625 73.5 -21.140625 C 77.238281 -22.773438 80.425781 -25.03125 83.0625 -27.90625 C 85.695312 -30.78125 87.753906 -34.109375 89.234375 -37.890625 C 90.722656 -41.679688 91.46875 -45.734375 91.46875 -50.046875 L 91.46875 -50.34375 C 91.46875 -54.65625 90.722656 -58.726562 89.234375 -62.5625 C 87.753906 -66.394531 85.644531 -69.75 82.90625 -72.625 C 80.175781 -75.507812 76.941406 -77.789062 73.203125 -79.46875 C 69.460938 -81.144531 65.390625 -81.984375 60.984375 -81.984375 C 56.472656 -81.984375 52.375 -81.164062 48.6875 -79.53125 C 45 -77.90625 41.832031 -75.65625 39.1875 -72.78125 C 36.550781 -69.90625 34.488281 -66.570312 33 -62.78125 C 31.519531 -58.988281 30.78125 -54.9375 30.78125 -50.625 L 30.78125 -50.34375 C 30.78125 -46.03125 31.519531 -41.953125 33 -38.109375 C 34.488281 -34.273438 36.597656 -30.921875 39.328125 -28.046875 C 42.066406 -25.171875 45.28125 -22.894531 48.96875 -21.21875 C 52.664062 -19.539062 56.765625 -18.703125 61.265625 -18.703125 Z M 60.984375 1.71875 C 53.210938 1.71875 46.066406 0.351562 39.546875 -2.375 C 33.023438 -5.101562 27.390625 -8.789062 22.640625 -13.4375 C 17.898438 -18.09375 14.210938 -23.5625 11.578125 -29.84375 C 8.941406 -36.125 7.625 -42.859375 7.625 -50.046875 L 7.625 -50.34375 C 7.625 -57.53125 8.960938 -64.265625 11.640625 -70.546875 C 14.328125 -76.828125 18.046875 -82.335938 22.796875 -87.078125 C 27.546875 -91.828125 33.203125 -95.566406 39.765625 -98.296875 C 46.335938 -101.035156 53.503906 -102.40625 61.265625 -102.40625 C 69.035156 -102.40625 76.179688 -101.035156 82.703125 -98.296875 C 89.222656 -95.566406 94.851562 -91.875 99.59375 -87.21875 C 104.34375 -82.570312 108.035156 -77.109375 110.671875 -70.828125 C 113.304688 -64.554688 114.625 -57.820312 114.625 -50.625 L 114.625 -50.34375 C 114.625 -43.144531 113.28125 -36.40625 110.59375 -30.125 C 107.914062 -23.851562 104.203125 -18.34375 99.453125 -13.59375 C 94.710938 -8.84375 89.054688 -5.101562 82.484375 -2.375 C 75.921875 0.351562 68.753906 1.71875 60.984375 1.71875 Z M 60.984375 1.71875 "/>
</g>
<g id="glyph-0-2">
<path d="M 12.078125 -100.6875 L 34.234375 -100.6875 L 34.234375 -20.140625 L 84.421875 -20.140625 L 84.421875 0 L 12.078125 0 Z M 12.078125 -100.6875 "/>
</g>
<g id="glyph-0-3">
<path d="M 13.09375 -100.6875 L 35.234375 -100.6875 L 35.234375 0 L 13.09375 0 Z M 13.09375 -100.6875 "/>
</g>
<g id="glyph-0-4">
<path d="M 3.453125 -100.6875 L 27.90625 -100.6875 L 54.21875 -29.765625 L 80.546875 -100.6875 L 104.421875 -100.6875 L 63.71875 0.71875 L 44.15625 0.71875 Z M 3.453125 -100.6875 "/>
</g>
<g id="glyph-0-5">
<path d="M 12.078125 -100.6875 L 32.5 -100.6875 L 79.6875 -38.6875 L 79.6875 -100.6875 L 101.546875 -100.6875 L 101.546875 0 L 82.703125 0 L 33.9375 -64 L 33.9375 0 L 12.078125 0 Z M 12.078125 -100.6875 "/>
</g>
<g id="glyph-0-6">
<path d="M 60.546875 1.71875 C 52.679688 1.71875 45.515625 0.425781 39.046875 -2.15625 C 32.578125 -4.75 27.015625 -8.34375 22.359375 -12.9375 C 17.710938 -17.539062 14.09375 -23.003906 11.5 -29.328125 C 8.914062 -35.660156 7.625 -42.566406 7.625 -50.046875 L 7.625 -50.34375 C 7.625 -57.53125 8.941406 -64.265625 11.578125 -70.546875 C 14.210938 -76.828125 17.878906 -82.335938 22.578125 -87.078125 C 27.273438 -91.828125 32.835938 -95.566406 39.265625 -98.296875 C 45.691406 -101.035156 52.738281 -102.40625 60.40625 -102.40625 C 64.914062 -102.40625 69.015625 -102.09375 72.703125 -101.46875 C 76.398438 -100.84375 79.828125 -99.953125 82.984375 -98.796875 C 86.148438 -97.648438 89.125 -96.210938 91.90625 -94.484375 C 94.6875 -92.765625 97.367188 -90.800781 99.953125 -88.59375 L 86.015625 -71.765625 C 84.085938 -73.398438 82.164062 -74.835938 80.25 -76.078125 C 78.332031 -77.328125 76.34375 -78.382812 74.28125 -79.25 C 72.21875 -80.113281 69.988281 -80.785156 67.59375 -81.265625 C 65.195312 -81.742188 62.5625 -81.984375 59.6875 -81.984375 C 55.65625 -81.984375 51.890625 -81.144531 48.390625 -79.46875 C 44.898438 -77.789062 41.832031 -75.535156 39.1875 -72.703125 C 36.550781 -69.878906 34.488281 -66.570312 33 -62.78125 C 31.519531 -58.988281 30.78125 -54.9375 30.78125 -50.625 L 30.78125 -50.34375 C 30.78125 -45.738281 31.519531 -41.492188 33 -37.609375 C 34.488281 -33.722656 36.597656 -30.34375 39.328125 -27.46875 C 42.066406 -24.59375 45.28125 -22.363281 48.96875 -20.78125 C 52.664062 -19.195312 56.765625 -18.40625 61.265625 -18.40625 C 69.515625 -18.40625 76.46875 -20.421875 82.125 -24.453125 L 82.125 -38.828125 L 59.828125 -38.828125 L 59.828125 -57.96875 L 103.5625 -57.96875 L 103.5625 -14.234375 C 98.382812 -9.828125 92.222656 -6.066406 85.078125 -2.953125 C 77.929688 0.160156 69.753906 1.71875 60.546875 1.71875 Z M 60.546875 1.71875 "/>
</g>
<g id="glyph-1-0">
<path d="M 10.90625 -18.796875 L 17.953125 -18.796875 L 17.953125 -20.984375 L 1.46875 -20.984375 L 1.46875 -18.796875 L 8.515625 -18.796875 L 8.515625 0 L 10.90625 0 Z M 10.90625 -18.796875 "/>
</g>
<g id="glyph-1-1">
<path d="M 18.125 -20.984375 L 2.96875 -20.984375 L 2.96875 0 L 18.28125 0 L 18.28125 -2.15625 L 5.328125 -2.15625 L 5.328125 -9.5 L 16.78125 -9.5 L 16.78125 -11.65625 L 5.328125 -11.65625 L 5.328125 -18.828125 L 18.125 -18.828125 Z M 18.125 -20.984375 "/>
</g>
<g id="glyph-1-2">
<path d="M 20.3125 0 L 13.875 -8.578125 C 17.171875 -9.171875 19.5625 -11.203125 19.5625 -14.71875 C 19.5625 -18.484375 16.609375 -20.984375 11.984375 -20.984375 L 2.96875 -20.984375 L 2.96875 0 L 5.328125 0 L 5.328125 -8.15625 L 11.328125 -8.15625 L 17.40625 0 Z M 17.171875 -14.625 C 17.171875 -11.890625 14.921875 -10.28125 11.78125 -10.28125 L 5.328125 -10.28125 L 5.328125 -18.796875 L 11.8125 -18.796875 C 15.1875 -18.796875 17.171875 -17.234375 17.171875 -14.625 Z M 17.171875 -14.625 "/>
</g>
<g id="glyph-1-3">
<path d="M 12.953125 -21.125 L 10.734375 -21.125 L 1.171875 0 L 3.59375 0 L 6.078125 -5.546875 L 17.5 -5.546875 L 19.953125 0 L 22.5 0 Z M 16.578125 -7.671875 L 7.015625 -7.671875 L 11.8125 -18.375 Z M 16.578125 -7.671875 "/>
</g>
<g id="glyph-1-4">
<path d="M 4.796875 -15.734375 C 4.796875 -17.65625 6.53125 -19.15625 9.265625 -19.15625 C 11.421875 -19.15625 13.359375 -18.453125 15.3125 -16.875 L 16.6875 -18.703125 C 14.5625 -20.40625 12.375 -21.28125 9.3125 -21.28125 C 5.328125 -21.28125 2.421875 -18.875 2.421875 -15.53125 C 2.421875 -12.046875 4.640625 -10.484375 9.46875 -9.4375 C 13.875 -8.515625 14.921875 -7.40625 14.921875 -5.421875 C 14.921875 -3.296875 13.0625 -1.828125 10.25 -1.828125 C 7.34375 -1.828125 5.25 -2.8125 3.0625 -4.796875 L 1.59375 -3.0625 C 4.109375 -0.8125 6.828125 0.296875 10.15625 0.296875 C 14.328125 0.296875 17.328125 -2.03125 17.328125 -5.671875 C 17.328125 -8.90625 15.171875 -10.609375 10.484375 -11.625 C 5.875 -12.609375 4.796875 -13.71875 4.796875 -15.734375 Z M 4.796875 -15.734375 "/>
</g>
</g>
</defs>
<g fill="rgb(7.058716%, 88.626099%, 55.293274%)" fill-opacity="1">
<use xlink:href="#glyph-0-0" x="51.822247" y="289.606609"/>
<use xlink:href="#glyph-0-1" x="157.965074" y="289.606609"/>
</g>
<g fill="rgb(9.01947%, 15.686035%, 23.529053%)" fill-opacity="1">
<use xlink:href="#glyph-0-2" x="280.200567" y="289.606609"/>
<use xlink:href="#glyph-0-3" x="369.228222" y="289.606609"/>
<use xlink:href="#glyph-0-4" x="417.553412" y="289.606609"/>
<use xlink:href="#glyph-0-3" x="525.422139" y="289.606609"/>
<use xlink:href="#glyph-0-5" x="573.747328" y="289.606609"/>
<use xlink:href="#glyph-0-6" x="687.369054" y="289.606609"/>
</g>
<g fill="rgb(9.01947%, 15.686035%, 23.529053%)" fill-opacity="1">
<use xlink:href="#glyph-1-0" x="80.501842" y="332.549768"/>
</g>
<g fill="rgb(9.01947%, 15.686035%, 23.529053%)" fill-opacity="1">
<use xlink:href="#glyph-1-1" x="122.390865" y="332.549768"/>
</g>
<g fill="rgb(9.01947%, 15.686035%, 23.529053%)" fill-opacity="1">
<use xlink:href="#glyph-1-2" x="164.939085" y="332.549768"/>
</g>
<g fill="rgb(9.01947%, 15.686035%, 23.529053%)" fill-opacity="1">
<use xlink:href="#glyph-1-2" x="209.075373" y="332.549768"/>
</g>
<g fill="rgb(9.01947%, 15.686035%, 23.529053%)" fill-opacity="1">
<use xlink:href="#glyph-1-3" x="253.211661" y="332.549768"/>
</g>
<g fill="rgb(9.01947%, 15.686035%, 23.529053%)" fill-opacity="1">
<use xlink:href="#glyph-1-4" x="298.906053" y="332.549768"/>
</g>
<g fill="rgb(9.01947%, 15.686035%, 23.529053%)" fill-opacity="1">
<use xlink:href="#glyph-1-4" x="340.285695" y="332.549768"/>
</g>
<g fill="rgb(9.01947%, 15.686035%, 23.529053%)" fill-opacity="1">
<use xlink:href="#glyph-1-3" x="381.485557" y="332.549768"/>
</g>
</svg>
